<svg width="300" height="300" viewBox="0 0 300 300" fill="none" xmlns="http://www.w3.org/2000/svg">
<path fill-rule="evenodd" clip-rule="evenodd" d="M150 300C232.843 300 300 232.843 300 150C300 67.1573 232.843 0 150 0C67.1573 0 0 67.1573 0 150C0 232.843 67.1573 300 150 300ZM150.5 295C230.305 295 295 230.305 295 150.5C295 70.6949 230.305 6 150.5 6C70.6949 6 6 70.6949 6 150.5C6 230.305 70.6949 295 150.5 295Z" fill="#C4C4C4"/>
<path fill-rule="evenodd" clip-rule="evenodd" d="M150 300C232.843 300 300 232.843 300 150C300 67.1573 232.843 0 150 0C67.1573 0 0 67.1573 0 150C0 232.843 67.1573 300 150 300ZM150.5 295C230.305 295 295 230.305 295 150.5C295 70.6949 230.305 6 150.5 6C70.6949 6 6 70.6949 6 150.5C6 230.305 70.6949 295 150.5 295Z" fill="url(#paint0_linear)"/>
<path d="M39.8574 199.316C38.6725 198.906 37.4193 198.61 36.0977 198.428C34.776 198.2 33.4316 197.995 32.0645 197.812C30.7428 197.585 29.4668 197.311 28.2363 196.992C27.0059 196.673 25.9121 196.195 24.9551 195.557C23.998 194.873 23.2233 193.962 22.6309 192.822C22.084 191.683 21.8105 190.202 21.8105 188.379V186.67L23.1094 173.613C23.2917 173.249 23.4512 172.975 23.5879 172.793C23.7246 172.565 24.0208 172.451 24.4766 172.451C25.4792 172.451 26.2083 172.884 26.6641 173.75C28.3958 176.211 29.8997 178.604 31.1758 180.928C32.4974 183.252 33.9102 185.713 35.4141 188.311C35.5964 188.766 36.0749 189.222 36.8496 189.678C37.6699 190.088 38.627 190.521 39.7207 190.977C40.8145 191.387 41.9993 191.774 43.2754 192.139C44.5514 192.503 45.7591 192.822 46.8984 193.096C48.0833 193.369 49.1315 193.597 50.043 193.779C51 193.916 51.7064 193.984 52.1621 193.984H53.4609C54.1901 193.984 54.6003 193.939 54.6914 193.848C54.8281 193.757 55.056 193.597 55.375 193.369C55.7396 193.141 56.1042 192.891 56.4688 192.617C56.8789 192.344 57.2435 192.093 57.5625 191.865C57.9271 191.637 58.1777 191.478 58.3145 191.387C58.4967 191.204 58.8158 191.022 59.2715 190.84C59.7272 190.658 60.0462 190.566 60.2285 190.566L63.0312 189.814C63.2135 189.814 63.6237 189.336 64.2617 188.379C64.8997 187.376 65.5605 186.283 66.2441 185.098C67.0645 183.73 67.9303 182.158 68.8418 180.381C68.8418 180.29 68.8646 180.039 68.9102 179.629C68.9557 179.219 68.9785 178.786 68.9785 178.33C69.0241 177.829 69.0697 177.373 69.1152 176.963C69.1608 176.507 69.1836 176.188 69.1836 176.006V174.912C69.1836 174.411 69.1608 173.978 69.1152 173.613C69.1152 173.203 69.0697 172.816 68.9785 172.451C68.9329 172.041 68.8418 171.608 68.7051 171.152C68.6139 170.697 68.4772 170.15 68.2949 169.512L68.1582 169.102C67.7936 168.6 67.3151 168.145 66.7227 167.734C66.1758 167.324 65.6745 166.846 65.2188 166.299C64.6719 165.524 64.2845 164.932 64.0566 164.521C63.8288 164.111 63.6009 163.77 63.373 163.496C63.1452 163.223 62.8262 162.972 62.416 162.744C62.0059 162.516 61.3451 162.197 60.4336 161.787C60.388 161.787 60.1374 161.719 59.6816 161.582C59.2259 161.445 58.8841 161.286 58.6562 161.104C58.0182 160.739 57.403 160.488 56.8105 160.352C56.2181 160.169 55.6029 160.055 54.9648 160.01C54.3724 159.919 53.7572 159.85 53.1191 159.805C52.4811 159.714 51.8203 159.554 51.1367 159.326C50.4987 158.825 49.9746 158.324 49.5645 157.822C49.1543 157.275 48.5618 156.82 47.7871 156.455C47.6504 156.455 47.3997 156.432 47.0352 156.387C46.7161 156.296 46.3516 156.204 45.9414 156.113C45.5768 156.022 45.2122 155.954 44.8477 155.908C44.5286 155.817 44.3236 155.771 44.2324 155.771L40.6777 152.08C40.0397 151.624 39.4473 151.305 38.9004 151.123C38.3991 150.895 37.9206 150.69 37.4648 150.508C37.0091 150.326 36.5534 150.12 36.0977 149.893C35.6875 149.665 35.209 149.3 34.6621 148.799C34.252 148.434 33.9329 148.07 33.7051 147.705C33.5228 147.34 33.3633 146.976 33.2266 146.611C33.0898 146.247 32.9531 145.882 32.8164 145.518C32.7253 145.153 32.5658 144.788 32.3379 144.424C32.2467 144.059 32.0417 143.626 31.7227 143.125C31.4492 142.624 31.2214 142.236 31.0391 141.963C29.9909 140.732 29.1478 139.684 28.5098 138.818C27.8717 137.907 27.3704 137.018 27.0059 136.152C26.6868 135.286 26.459 134.352 26.3223 133.35C26.2311 132.301 26.1855 130.98 26.1855 129.385C26.1855 127.471 26.4134 125.488 26.8691 123.438C27.3249 121.341 27.9857 119.313 28.8516 117.354C29.7174 115.394 30.7656 113.548 31.9961 111.816C33.2721 110.085 34.7077 108.604 36.3027 107.373C36.7585 106.917 37.2598 106.598 37.8066 106.416C38.3991 106.188 38.9915 106.029 39.584 105.938C40.222 105.846 40.86 105.801 41.498 105.801C42.1361 105.755 42.7513 105.664 43.3438 105.527C43.9362 105.391 44.4831 105.186 44.9844 104.912C45.5312 104.639 46.0553 104.365 46.5566 104.092C47.1035 103.773 47.6504 103.499 48.1973 103.271C48.7897 103.044 49.4049 102.93 50.043 102.93C52.0026 102.93 53.8483 103.044 55.5801 103.271C57.3574 103.499 59.112 103.818 60.8438 104.229C62.0286 104.502 63.0996 104.867 64.0566 105.322C65.0592 105.778 66.1758 106.006 67.4062 106.006C68.2721 106.006 69.0469 105.755 69.7305 105.254C70.4596 104.753 71.166 104.206 71.8496 103.613C72.5332 102.975 73.2396 102.406 73.9688 101.904C74.7435 101.403 75.6094 101.152 76.5664 101.152C77.4323 101.152 78.002 101.562 78.2754 102.383C78.5488 103.203 78.6855 103.978 78.6855 104.707L77.3867 109.15L77.9336 117.217V118.994C77.9336 120.225 77.888 121.273 77.7969 122.139C77.7513 122.959 77.569 124.007 77.25 125.283C77.1589 125.511 76.9993 125.716 76.7715 125.898C76.5892 126.081 76.4297 126.172 76.293 126.172C76.293 126.263 76.1335 126.309 75.8145 126.309C75.5866 126.309 75.222 126.012 74.7207 125.42C74.265 124.827 73.6953 124.076 73.0117 123.164C72.3737 122.253 71.6901 121.25 70.9609 120.156C70.2318 119.062 69.5026 118.014 68.7734 117.012C68.0443 115.964 67.3379 115.029 66.6543 114.209C66.0163 113.389 65.4466 112.819 64.9453 112.5C64.0339 111.908 63.0312 111.429 61.9375 111.064C60.8438 110.654 59.7044 110.358 58.5195 110.176C57.3346 109.948 56.1497 109.788 54.9648 109.697C53.7799 109.606 52.6862 109.561 51.6836 109.561C50.1797 109.561 48.8809 109.697 47.7871 109.971C46.6934 110.244 45.7363 110.677 44.916 111.27C44.0957 111.862 43.3665 112.637 42.7285 113.594C42.0905 114.505 41.498 115.599 40.9512 116.875C40.4954 117.878 40.1081 118.675 39.7891 119.268C39.5156 119.86 39.265 120.407 39.0371 120.908C38.8548 121.41 38.7181 121.956 38.627 122.549C38.5358 123.096 38.4902 123.848 38.4902 124.805C38.4902 127.22 38.9004 129.316 39.7207 131.094C40.541 132.871 41.6348 134.421 43.002 135.742C44.3691 137.018 45.9642 138.089 47.7871 138.955C49.61 139.775 51.5469 140.482 53.5977 141.074L54.2812 141.553C55.375 142.236 56.332 142.829 57.1523 143.33C58.0182 143.786 58.8385 144.219 59.6133 144.629C60.388 144.993 61.1855 145.358 62.0059 145.723C62.8717 146.087 63.8516 146.52 64.9453 147.021L72.875 152.08C72.9661 152.126 73.0573 152.217 73.1484 152.354C73.2852 152.445 73.4219 152.536 73.5586 152.627C73.7409 152.764 73.9004 152.9 74.0371 153.037L75.2676 156.455C75.4499 156.774 75.6094 157.139 75.7461 157.549C75.9284 157.913 76.1107 158.187 76.293 158.369C76.4297 158.46 76.6576 158.688 76.9766 159.053C77.2956 159.417 77.6146 159.827 77.9336 160.283C78.2982 160.693 78.5944 161.104 78.8223 161.514C79.0957 161.878 79.2324 162.129 79.2324 162.266C79.3691 162.539 79.5286 162.949 79.7109 163.496C79.9388 163.997 80.1439 164.521 80.3262 165.068C80.554 165.615 80.7363 166.139 80.873 166.641C81.0553 167.142 81.1465 167.507 81.1465 167.734V177.783C81.1465 177.829 81.0326 178.125 80.8047 178.672C80.6224 179.219 80.4173 179.674 80.1895 180.039C80.0527 180.085 79.9388 180.199 79.8477 180.381C79.8021 180.472 79.7565 180.586 79.7109 180.723C79.6654 180.859 79.5514 181.156 79.3691 181.611C79.2324 182.067 79.0729 182.568 78.8906 183.115C78.7083 183.662 78.526 184.163 78.3438 184.619C78.1615 185.075 78.0247 185.348 77.9336 185.439C77.7969 185.85 77.5462 186.283 77.1816 186.738C76.8626 187.194 76.498 187.627 76.0879 188.037C75.6777 188.447 75.2676 188.812 74.8574 189.131C74.4928 189.45 74.2194 189.678 74.0371 189.814C73.627 190.361 73.3991 190.954 73.3535 191.592C73.3079 192.23 73.0345 192.708 72.5332 193.027C70.7559 193.665 69.2975 194.395 68.1582 195.215C67.0189 195.99 65.9251 196.742 64.877 197.471C63.8743 198.154 62.8034 198.747 61.6641 199.248C60.5247 199.749 59.0892 200 57.3574 200H56.5371C55.3066 199.909 54.4863 199.863 54.0762 199.863C53.7116 199.818 53.4382 199.795 53.2559 199.795L39.8574 199.316ZM164.887 117.422L161.537 113.936C160.398 112.933 159.327 112.113 158.324 111.475C157.367 110.837 156.41 110.335 155.453 109.971C154.496 109.561 153.516 109.287 152.514 109.15C151.557 109.014 150.486 108.945 149.301 108.945C148.891 108.945 148.64 108.991 148.549 109.082C147.318 109.082 146.339 109.082 145.609 109.082C144.926 109.082 144.402 109.082 144.037 109.082C143.673 109.082 143.422 109.105 143.285 109.15C143.194 109.15 143.148 109.15 143.148 109.15H137.885C137.11 109.378 136.312 109.515 135.492 109.561C134.672 109.606 133.874 109.629 133.1 109.629C131.368 109.629 130.046 109.652 129.135 109.697C128.269 109.743 127.562 109.925 127.016 110.244C126.514 110.426 126.218 110.677 126.127 110.996C126.036 111.27 125.99 111.52 125.99 111.748C125.99 112.705 125.854 113.411 125.58 113.867C125.352 114.277 124.851 114.733 124.076 115.234C123.939 115.326 123.826 115.553 123.734 115.918C123.689 116.283 123.62 116.693 123.529 117.148C123.484 117.604 123.438 118.06 123.393 118.516C123.393 118.971 123.393 119.336 123.393 119.609C123.393 120.658 123.552 121.66 123.871 122.617C124.19 123.574 124.35 124.645 124.35 125.83L123.734 130.137C123.734 131.185 123.962 132.233 124.418 133.281C124.919 134.329 125.17 135.469 125.17 136.699L124.076 146.885C124.076 147.295 124.258 147.773 124.623 148.32C124.988 148.822 125.284 149.209 125.512 149.482C126.924 149.665 128.36 149.938 129.818 150.303C131.277 150.622 132.712 150.781 134.125 150.781C134.444 150.781 134.717 150.758 134.945 150.713C135.219 150.622 135.469 150.326 135.697 149.824C136.199 149.779 136.791 149.733 137.475 149.688C138.204 149.642 139.024 149.619 139.936 149.619C141.166 149.619 142.488 149.619 143.9 149.619C145.313 149.574 146.703 149.505 148.07 149.414C149.438 149.277 150.691 149.095 151.83 148.867C152.969 148.594 153.858 148.206 154.496 147.705C155.134 147.295 155.613 146.702 155.932 145.928C156.296 145.153 156.57 144.333 156.752 143.467C156.934 142.555 157.094 141.644 157.23 140.732C157.367 139.821 157.549 139.001 157.777 138.271C158.051 137.497 158.415 136.882 158.871 136.426C159.372 135.924 160.079 135.674 160.99 135.674C161.264 135.674 161.514 135.719 161.742 135.811C162.016 135.902 162.266 136.198 162.494 136.699V139.57C162.494 141.758 162.266 143.854 161.811 145.859C161.583 147.454 161.355 148.913 161.127 150.234C160.945 151.51 160.854 152.809 160.854 154.131C160.854 155.27 161.013 156.387 161.332 157.48C161.697 158.529 162.061 159.577 162.426 160.625C162.836 161.628 163.201 162.653 163.52 163.701C163.884 164.749 164.066 165.82 164.066 166.914C164.066 167.598 164.044 168.122 163.998 168.486C163.998 168.805 163.907 169.01 163.725 169.102C163.497 169.466 163.337 169.74 163.246 169.922C163.155 170.104 162.904 170.195 162.494 170.195C161.811 170.195 161.286 169.945 160.922 169.443C160.603 168.942 160.193 168.441 159.691 167.939L158.734 165.82C158.233 164.727 157.755 163.678 157.299 162.676C156.843 161.673 156.296 160.739 155.658 159.873C155.066 158.962 154.359 158.118 153.539 157.344C152.764 156.523 151.807 155.794 150.668 155.156H147.592C145.997 155.156 144.356 155.133 142.67 155.088C140.984 154.997 139.525 154.837 138.295 154.609L134.125 153.857C132.94 153.857 131.641 154.062 130.229 154.473C128.861 154.883 127.562 155.111 126.332 155.156C125.922 155.658 125.443 156.296 124.896 157.07C124.35 157.799 124.076 158.597 124.076 159.463C124.805 162.835 125.421 166.162 125.922 169.443C126.423 172.679 126.674 175.938 126.674 179.219C126.674 180.768 126.628 181.816 126.537 182.363C126.492 182.865 126.423 183.275 126.332 183.594C126.697 184.688 127.198 185.667 127.836 186.533C128.52 187.354 129.294 188.105 130.16 188.789C131.026 189.427 131.938 190.02 132.895 190.566C133.852 191.113 134.786 191.615 135.697 192.07C135.743 192.07 135.88 192.207 136.107 192.48C136.381 192.754 136.518 192.936 136.518 193.027C136.7 193.118 137.11 193.21 137.748 193.301C138.386 193.346 138.796 193.369 138.979 193.369C139.343 193.369 139.639 193.369 139.867 193.369C140.141 193.369 140.437 193.324 140.756 193.232C141.12 193.187 141.417 193.164 141.645 193.164C141.918 193.164 142.214 193.164 142.533 193.164C142.852 193.164 143.194 193.164 143.559 193.164C143.923 193.164 144.242 193.187 144.516 193.232C144.835 193.324 145.131 193.369 145.404 193.369C145.723 193.369 146.02 193.369 146.293 193.369C146.521 193.597 146.794 193.825 147.113 194.053C147.478 194.281 147.797 194.554 148.07 194.873C148.389 195.192 148.64 195.534 148.822 195.898C149.05 196.263 149.164 196.673 149.164 197.129C149.164 197.63 149.05 198.154 148.822 198.701C148.594 199.202 148.275 199.681 147.865 200.137C147.501 200.638 147.09 201.025 146.635 201.299C146.179 201.618 145.723 201.777 145.268 201.777H145.131C144.63 201.868 144.06 201.914 143.422 201.914C142.829 201.96 142.305 201.982 141.85 201.982C141.212 201.982 140.596 201.96 140.004 201.914C139.457 201.914 138.728 201.868 137.816 201.777L136.518 201.436C135.743 201.025 134.877 200.661 133.92 200.342C132.963 200.023 131.96 199.749 130.912 199.521C129.91 199.294 128.884 199.134 127.836 199.043C126.833 198.906 125.899 198.838 125.033 198.838C124.076 198.838 123.256 198.883 122.572 198.975C121.889 199.02 120.977 199.202 119.838 199.521C118.79 199.704 117.696 199.84 116.557 199.932C115.463 199.977 114.392 200 113.344 200C112.159 200 111.042 199.977 109.994 199.932C108.992 199.84 107.898 199.704 106.713 199.521C106.166 199.704 105.642 200 105.141 200.41C104.685 200.82 104.07 201.117 103.295 201.299C102.976 201.208 102.68 201.117 102.406 201.025C102.178 200.98 101.905 200.957 101.586 200.957C101.358 201.048 101.016 201.094 100.561 201.094H97.9629C96.9147 200.729 96.0488 200.365 95.3652 200C94.7272 199.635 94.2487 198.929 93.9297 197.881C93.9297 196.423 94.6816 195.192 96.1855 194.189C97.2793 194.098 98.6921 193.802 100.424 193.301C102.201 192.799 103.91 192.139 105.551 191.318C107.191 190.498 108.604 189.518 109.789 188.379C111.02 187.24 111.635 185.986 111.635 184.619C111.635 182.204 111.566 180.13 111.43 178.398C111.339 176.621 111.202 174.912 111.02 173.271C110.883 171.631 110.746 169.922 110.609 168.145C110.518 166.322 110.473 164.134 110.473 161.582C110.473 160.807 110.541 160.055 110.678 159.326C110.86 158.551 111.02 157.799 111.156 157.07C111.339 156.296 111.498 155.544 111.635 154.814C111.817 154.04 111.908 153.265 111.908 152.49C111.908 152.354 111.885 152.171 111.84 151.943C111.84 151.715 111.84 151.488 111.84 151.26C111.84 150.986 111.817 150.758 111.771 150.576C111.771 150.348 111.771 150.234 111.771 150.234L110.951 147.227V141.963C110.951 141.188 110.86 140.413 110.678 139.639C110.495 138.864 110.29 138.089 110.062 137.314C109.88 136.54 109.698 135.788 109.516 135.059C109.379 134.284 109.311 133.532 109.311 132.803C109.311 132.62 109.333 132.324 109.379 131.914C109.47 131.458 109.561 131.139 109.652 130.957C109.835 130.046 109.971 129.134 110.062 128.223C110.199 127.266 110.268 126.309 110.268 125.352C110.268 124.44 110.222 123.551 110.131 122.686C110.04 121.774 109.88 120.863 109.652 119.951C109.652 119.131 109.447 118.333 109.037 117.559C108.673 116.738 108.171 115.964 107.533 115.234C106.941 114.505 106.28 113.867 105.551 113.32C104.822 112.728 104.138 112.295 103.5 112.021C102.68 111.702 101.563 111.497 100.15 111.406C98.7376 111.315 97.3249 111.156 95.9121 110.928C94.4993 110.654 93.2689 110.221 92.2207 109.629C91.2181 108.991 90.7168 107.965 90.7168 106.553V105.527C91.446 105.117 92.3346 104.707 93.3828 104.297C94.4766 103.841 95.4108 103.613 96.1855 103.613H97.8262C98.4642 103.613 99.0794 103.682 99.6719 103.818C100.31 103.955 100.834 104.274 101.244 104.775C102.019 104.912 102.794 105.026 103.568 105.117C104.343 105.208 105.118 105.254 105.893 105.254C106.576 105.254 107.328 105.208 108.148 105.117C108.969 105.026 109.789 104.912 110.609 104.775C110.837 104.411 110.997 104.206 111.088 104.16C111.225 104.115 111.452 104.092 111.771 104.092C112.729 104.092 113.663 104.274 114.574 104.639C115.486 105.003 116.534 105.186 117.719 105.186H119.223C119.724 105.186 120.248 105.186 120.795 105.186C121.342 105.14 121.934 105.003 122.572 104.775C124.213 105.049 126.013 105.186 127.973 105.186C129.796 105.186 131.641 105.049 133.51 104.775C135.196 104.183 136.973 103.887 138.842 103.887C140.756 103.887 142.738 103.796 144.789 103.613C145.837 103.522 146.817 103.454 147.729 103.408C148.686 103.317 149.643 103.271 150.6 103.271C151.283 103.271 151.99 103.317 152.719 103.408C153.448 103.454 154.2 103.522 154.975 103.613C155.157 103.704 155.385 103.864 155.658 104.092C155.977 104.274 156.273 104.479 156.547 104.707C156.866 104.935 157.162 105.14 157.436 105.322C157.709 105.459 157.914 105.527 158.051 105.527C158.461 105.527 158.803 105.459 159.076 105.322C159.395 105.186 159.783 105.003 160.238 104.775C160.967 104.593 161.719 104.479 162.494 104.434C163.269 104.342 164.066 104.297 164.887 104.297C166.299 104.297 167.712 104.456 169.125 104.775C169.216 104.775 169.421 104.935 169.74 105.254C170.105 105.527 170.469 105.846 170.834 106.211C171.244 106.53 171.609 106.849 171.928 107.168C172.247 107.441 172.429 107.601 172.475 107.646V117.422C173.386 119.655 173.842 121.911 173.842 124.189C173.842 124.736 173.819 125.306 173.773 125.898C173.773 126.445 173.682 126.969 173.5 127.471C173.363 127.972 173.113 128.382 172.748 128.701C172.383 129.02 171.882 129.18 171.244 129.18C170.971 128.861 170.652 128.473 170.287 128.018C169.923 127.562 169.535 127.106 169.125 126.65C168.76 126.149 168.396 125.671 168.031 125.215C167.712 124.759 167.439 124.349 167.211 123.984C167.211 123.893 167.12 123.643 166.938 123.232C166.755 122.777 166.55 122.321 166.322 121.865C166.094 121.364 165.867 120.908 165.639 120.498C165.456 120.042 165.32 119.746 165.229 119.609C165.137 119.518 165.046 119.154 164.955 118.516C164.91 117.878 164.887 117.513 164.887 117.422ZM183.891 195.83C183.891 195.146 184.21 194.645 184.848 194.326C185.486 194.007 186.283 193.757 187.24 193.574C188.243 193.346 189.314 193.118 190.453 192.891C191.592 192.663 192.641 192.298 193.598 191.797C194.6 191.296 195.421 190.589 196.059 189.678C196.697 188.766 197.016 187.513 197.016 185.918L196.537 183.662C196.537 183.343 196.628 183.092 196.811 182.91C196.993 182.682 197.198 182.477 197.426 182.295C197.654 182.113 197.859 181.908 198.041 181.68C198.223 181.452 198.314 181.133 198.314 180.723L197.768 176.006L198.109 173.271C198.201 173.044 198.246 172.565 198.246 171.836C198.246 170.378 198.018 169.124 197.562 168.076C197.152 166.982 196.947 165.911 196.947 164.863C196.947 164.225 196.97 163.838 197.016 163.701C197.562 161.969 197.995 160.192 198.314 158.369C198.633 156.501 198.793 154.723 198.793 153.037C198.793 152.308 198.633 151.807 198.314 151.533L197.768 139.092C197.585 138.317 197.335 137.474 197.016 136.562C196.697 135.651 196.537 134.717 196.537 133.76C196.537 133.669 196.56 133.555 196.605 133.418C196.651 133.281 196.788 132.894 197.016 132.256C197.016 130.068 196.924 127.926 196.742 125.83C196.56 123.688 196.378 121.478 196.195 119.199L196.332 117.08C196.332 117.035 196.218 116.898 195.99 116.67C195.762 116.442 195.489 116.191 195.17 115.918C194.896 115.645 194.646 115.371 194.418 115.098C194.19 114.824 194.076 114.619 194.076 114.482C194.167 114.255 194.236 114.049 194.281 113.867C194.327 113.685 194.35 113.503 194.35 113.32C194.35 113.092 194.327 112.865 194.281 112.637C194.236 112.363 194.167 112.113 194.076 111.885C194.031 111.657 193.712 111.406 193.119 111.133C192.572 110.814 191.889 110.518 191.068 110.244C190.248 109.971 189.359 109.697 188.402 109.424C187.491 109.105 186.625 108.831 185.805 108.604C185.03 108.33 184.369 108.079 183.822 107.852C183.321 107.578 183.07 107.35 183.07 107.168C183.07 106.53 183.253 106.006 183.617 105.596C183.982 105.14 184.438 104.798 184.984 104.57C185.531 104.297 186.124 104.115 186.762 104.023C187.445 103.932 188.106 103.887 188.744 103.887C189.792 104.297 190.863 104.548 191.957 104.639C193.096 104.684 194.19 104.707 195.238 104.707C198.018 104.707 200.548 104.57 202.826 104.297C204.604 104.115 206.472 103.91 208.432 103.682C210.391 103.454 212.191 103.203 213.832 102.93C214.789 102.611 215.518 102.383 216.02 102.246C216.521 102.064 216.817 101.973 216.908 101.973C217.455 101.973 217.865 101.995 218.139 102.041C218.458 102.087 218.708 102.132 218.891 102.178H225.863C226.091 102.269 226.365 102.314 226.684 102.314C227.048 102.314 227.367 102.314 227.641 102.314C227.96 102.314 228.256 102.314 228.529 102.314C228.848 102.314 229.145 102.269 229.418 102.178C232.107 102.178 234.682 102.52 237.143 103.203C239.604 103.887 242.133 104.616 244.73 105.391C244.822 105.391 245.141 105.459 245.688 105.596C246.28 105.687 246.895 105.801 247.533 105.938C248.217 106.074 248.855 106.211 249.447 106.348C250.085 106.439 250.473 106.484 250.609 106.484C250.701 106.484 250.86 106.598 251.088 106.826C251.361 107.008 251.658 107.214 251.977 107.441C252.296 107.624 252.569 107.806 252.797 107.988C253.07 108.171 253.253 108.262 253.344 108.262L256.557 108.672C256.557 108.672 256.625 108.74 256.762 108.877C256.944 109.014 257.126 109.173 257.309 109.355C257.491 109.538 257.673 109.697 257.855 109.834C258.038 109.971 258.174 110.062 258.266 110.107C259.542 111.064 260.909 111.816 262.367 112.363C263.871 112.865 265.352 113.571 266.811 114.482C268.269 116.214 269.887 117.946 271.664 119.678C273.441 121.41 275.128 123.187 276.723 125.01C276.768 125.055 276.814 125.146 276.859 125.283C276.951 125.42 277.042 125.671 277.133 126.035C277.224 126.354 277.361 126.81 277.543 127.402C277.725 127.995 277.93 128.77 278.158 129.727C278.158 130.273 278.249 130.638 278.432 130.82C278.432 130.957 278.546 131.162 278.773 131.436C279.001 131.709 279.252 132.005 279.525 132.324C279.844 132.643 280.141 132.939 280.414 133.213C280.688 133.486 280.893 133.669 281.029 133.76C281.029 134.671 281.12 135.492 281.303 136.221C281.485 136.904 281.69 137.565 281.918 138.203C282.146 138.841 282.351 139.456 282.533 140.049C282.715 140.641 282.807 141.234 282.807 141.826L282.533 145.723L283.354 151.055C283.354 152.422 283.24 153.743 283.012 155.02C282.784 156.296 282.51 157.549 282.191 158.779C281.872 160.01 281.531 161.263 281.166 162.539C280.801 163.77 280.482 165.068 280.209 166.436V169.033C280.209 169.079 280.049 169.307 279.73 169.717C279.457 170.081 279.32 170.355 279.32 170.537C278.91 171.54 278.432 172.52 277.885 173.477C277.383 174.434 276.859 175.413 276.312 176.416C275.766 177.373 275.219 178.353 274.672 179.355C274.171 180.358 273.715 181.406 273.305 182.5L267.494 187.559L263.598 189.814C263.279 189.814 263.119 189.928 263.119 190.156C262.117 191.523 260.863 192.754 259.359 193.848C257.901 194.941 256.283 195.488 254.506 195.488L250.951 195.146C250.541 195.146 250.04 195.306 249.447 195.625C248.9 195.898 248.376 196.126 247.875 196.309C247.738 196.309 247.465 196.354 247.055 196.445C246.645 196.491 246.212 196.559 245.756 196.65C245.346 196.696 244.936 196.764 244.525 196.855C244.161 196.901 243.933 196.924 243.842 196.924C243.705 196.924 243.34 196.992 242.748 197.129C242.156 197.266 241.472 197.425 240.697 197.607C239.923 197.744 239.148 197.904 238.373 198.086C237.598 198.268 236.983 198.405 236.527 198.496C235.98 198.952 235.274 199.18 234.408 199.18C234.089 199.18 233.679 199.134 233.178 199.043C232.676 198.906 231.947 198.724 230.99 198.496C230.945 198.496 230.785 198.542 230.512 198.633C230.284 198.678 230.01 198.747 229.691 198.838C229.418 198.929 229.122 199.02 228.803 199.111C228.484 199.157 228.233 199.18 228.051 199.18C227.732 199.089 227.322 198.952 226.82 198.77C226.319 198.587 225.977 198.496 225.795 198.496C223.744 198.77 221.739 198.952 219.779 199.043C217.865 199.134 215.951 199.18 214.037 199.18C212.032 199.18 210.095 199.134 208.227 199.043C206.358 198.952 204.444 198.77 202.484 198.496C201.299 198.268 200.297 198.132 199.477 198.086C198.656 198.04 197.654 198.018 196.469 198.018L188.676 199.521C188.129 199.521 187.559 199.453 186.967 199.316C186.42 199.18 185.919 198.975 185.463 198.701C185.007 198.382 184.62 197.995 184.301 197.539C184.027 197.083 183.891 196.514 183.891 195.83ZM211.576 178.125C211.576 180.267 212.26 182.318 213.627 184.277C214.994 186.237 216.68 187.946 218.686 189.404C220.736 190.863 222.924 192.025 225.248 192.891C227.572 193.757 229.669 194.189 231.537 194.189C233.998 194.189 236.208 193.916 238.168 193.369C240.173 192.822 242.201 191.956 244.252 190.771C244.844 190.407 245.368 190.133 245.824 189.951C246.326 189.723 246.804 189.518 247.26 189.336C247.715 189.108 248.171 188.857 248.627 188.584C249.128 188.311 249.675 187.969 250.268 187.559C251.908 186.374 253.503 185.098 255.053 183.73C256.648 182.363 258.129 180.814 259.496 179.082L259.838 177.305C260.02 176.53 260.248 175.869 260.521 175.322C260.795 174.73 261.091 174.16 261.41 173.613C261.729 173.066 262.025 172.52 262.299 171.973C262.618 171.38 262.891 170.719 263.119 169.99C263.119 169.945 263.142 169.785 263.188 169.512C263.233 169.238 263.279 168.942 263.324 168.623C263.37 168.304 263.415 168.008 263.461 167.734C263.552 167.461 263.598 167.301 263.598 167.256C263.917 166.436 264.281 165.615 264.691 164.795C265.102 163.929 265.489 163.063 265.854 162.197C266.218 161.331 266.514 160.443 266.742 159.531C267.016 158.62 267.152 157.686 267.152 156.729C266.924 156.09 266.788 155.658 266.742 155.43C266.697 155.156 266.674 154.906 266.674 154.678C266.674 154.45 266.697 154.176 266.742 153.857C266.788 153.538 266.811 153.356 266.811 153.311C266.719 152.946 266.605 152.262 266.469 151.26C266.332 150.257 266.195 149.209 266.059 148.115C265.967 146.976 265.876 145.905 265.785 144.902C265.694 143.854 265.648 143.148 265.648 142.783C265.238 142.236 264.965 141.598 264.828 140.869C264.737 140.094 264.691 139.388 264.691 138.75C264.691 138.158 264.714 137.656 264.76 137.246C264.805 136.79 264.828 136.38 264.828 136.016C264.053 135.469 263.507 134.808 263.188 134.033C262.868 133.213 262.618 132.37 262.436 131.504C262.253 130.638 262.048 129.772 261.82 128.906C261.638 127.995 261.296 127.174 260.795 126.445C260.749 126.354 260.635 126.217 260.453 126.035C260.271 125.807 260.066 125.579 259.838 125.352C259.61 125.078 259.405 124.85 259.223 124.668C259.04 124.486 258.926 124.372 258.881 124.326L257.719 122.754L253.891 118.857C252.842 117.855 251.863 116.784 250.951 115.645C250.085 114.505 249.06 113.525 247.875 112.705C247.009 112.113 246.166 111.702 245.346 111.475C244.571 111.201 243.773 110.951 242.953 110.723C242.133 110.495 241.29 110.176 240.424 109.766C239.558 109.355 238.646 108.717 237.689 107.852C237.143 107.396 236.254 107.031 235.023 106.758C233.839 106.484 232.562 106.279 231.195 106.143C229.828 105.96 228.507 105.846 227.23 105.801C226 105.755 225.089 105.732 224.496 105.732C222.4 105.732 220.121 105.892 217.66 106.211C215.245 106.484 213.057 107.031 211.098 107.852C210.733 108.034 210.414 108.467 210.141 109.15C209.913 109.834 209.708 110.632 209.525 111.543C209.389 112.454 209.275 113.411 209.184 114.414C209.138 115.417 209.115 116.305 209.115 117.08V119.131C209.115 120.771 209.32 122.344 209.73 123.848C210.186 125.306 210.414 126.924 210.414 128.701C210.414 128.929 210.346 129.248 210.209 129.658C210.118 130.023 210.027 130.251 209.936 130.342C209.799 131.299 209.708 132.256 209.662 133.213C209.617 134.17 209.594 135.104 209.594 136.016C209.594 136.79 209.617 137.588 209.662 138.408C209.708 139.183 209.799 139.935 209.936 140.664C210.255 141.576 210.437 142.35 210.482 142.988C210.574 143.581 210.619 144.173 210.619 144.766C210.619 145.358 210.596 145.905 210.551 146.406C210.551 146.908 210.505 147.546 210.414 148.32L210.551 149.961L210.414 151.191C210.186 151.602 210.049 151.966 210.004 152.285C209.958 152.559 209.936 152.923 209.936 153.379V154.473C209.936 156.523 210.004 158.643 210.141 160.83C210.323 163.018 210.528 165.16 210.756 167.256C210.938 168.486 211.212 169.717 211.576 170.947C211.986 172.178 212.191 173.385 212.191 174.57L211.576 178.125Z" fill="black"/>
<path d="M39.8574 199.316C38.6725 198.906 37.4193 198.61 36.0977 198.428C34.776 198.2 33.4316 197.995 32.0645 197.812C30.7428 197.585 29.4668 197.311 28.2363 196.992C27.0059 196.673 25.9121 196.195 24.9551 195.557C23.998 194.873 23.2233 193.962 22.6309 192.822C22.084 191.683 21.8105 190.202 21.8105 188.379V186.67L23.1094 173.613C23.2917 173.249 23.4512 172.975 23.5879 172.793C23.7246 172.565 24.0208 172.451 24.4766 172.451C25.4792 172.451 26.2083 172.884 26.6641 173.75C28.3958 176.211 29.8997 178.604 31.1758 180.928C32.4974 183.252 33.9102 185.713 35.4141 188.311C35.5964 188.766 36.0749 189.222 36.8496 189.678C37.6699 190.088 38.627 190.521 39.7207 190.977C40.8145 191.387 41.9993 191.774 43.2754 192.139C44.5514 192.503 45.7591 192.822 46.8984 193.096C48.0833 193.369 49.1315 193.597 50.043 193.779C51 193.916 51.7064 193.984 52.1621 193.984H53.4609C54.1901 193.984 54.6003 193.939 54.6914 193.848C54.8281 193.757 55.056 193.597 55.375 193.369C55.7396 193.141 56.1042 192.891 56.4688 192.617C56.8789 192.344 57.2435 192.093 57.5625 191.865C57.9271 191.637 58.1777 191.478 58.3145 191.387C58.4967 191.204 58.8158 191.022 59.2715 190.84C59.7272 190.658 60.0462 190.566 60.2285 190.566L63.0312 189.814C63.2135 189.814 63.6237 189.336 64.2617 188.379C64.8997 187.376 65.5605 186.283 66.2441 185.098C67.0645 183.73 67.9303 182.158 68.8418 180.381C68.8418 180.29 68.8646 180.039 68.9102 179.629C68.9557 179.219 68.9785 178.786 68.9785 178.33C69.0241 177.829 69.0697 177.373 69.1152 176.963C69.1608 176.507 69.1836 176.188 69.1836 176.006V174.912C69.1836 174.411 69.1608 173.978 69.1152 173.613C69.1152 173.203 69.0697 172.816 68.9785 172.451C68.9329 172.041 68.8418 171.608 68.7051 171.152C68.6139 170.697 68.4772 170.15 68.2949 169.512L68.1582 169.102C67.7936 168.6 67.3151 168.145 66.7227 167.734C66.1758 167.324 65.6745 166.846 65.2188 166.299C64.6719 165.524 64.2845 164.932 64.0566 164.521C63.8288 164.111 63.6009 163.77 63.373 163.496C63.1452 163.223 62.8262 162.972 62.416 162.744C62.0059 162.516 61.3451 162.197 60.4336 161.787C60.388 161.787 60.1374 161.719 59.6816 161.582C59.2259 161.445 58.8841 161.286 58.6562 161.104C58.0182 160.739 57.403 160.488 56.8105 160.352C56.2181 160.169 55.6029 160.055 54.9648 160.01C54.3724 159.919 53.7572 159.85 53.1191 159.805C52.4811 159.714 51.8203 159.554 51.1367 159.326C50.4987 158.825 49.9746 158.324 49.5645 157.822C49.1543 157.275 48.5618 156.82 47.7871 156.455C47.6504 156.455 47.3997 156.432 47.0352 156.387C46.7161 156.296 46.3516 156.204 45.9414 156.113C45.5768 156.022 45.2122 155.954 44.8477 155.908C44.5286 155.817 44.3236 155.771 44.2324 155.771L40.6777 152.08C40.0397 151.624 39.4473 151.305 38.9004 151.123C38.3991 150.895 37.9206 150.69 37.4648 150.508C37.0091 150.326 36.5534 150.12 36.0977 149.893C35.6875 149.665 35.209 149.3 34.6621 148.799C34.252 148.434 33.9329 148.07 33.7051 147.705C33.5228 147.34 33.3633 146.976 33.2266 146.611C33.0898 146.247 32.9531 145.882 32.8164 145.518C32.7253 145.153 32.5658 144.788 32.3379 144.424C32.2467 144.059 32.0417 143.626 31.7227 143.125C31.4492 142.624 31.2214 142.236 31.0391 141.963C29.9909 140.732 29.1478 139.684 28.5098 138.818C27.8717 137.907 27.3704 137.018 27.0059 136.152C26.6868 135.286 26.459 134.352 26.3223 133.35C26.2311 132.301 26.1855 130.98 26.1855 129.385C26.1855 127.471 26.4134 125.488 26.8691 123.438C27.3249 121.341 27.9857 119.313 28.8516 117.354C29.7174 115.394 30.7656 113.548 31.9961 111.816C33.2721 110.085 34.7077 108.604 36.3027 107.373C36.7585 106.917 37.2598 106.598 37.8066 106.416C38.3991 106.188 38.9915 106.029 39.584 105.938C40.222 105.846 40.86 105.801 41.498 105.801C42.1361 105.755 42.7513 105.664 43.3438 105.527C43.9362 105.391 44.4831 105.186 44.9844 104.912C45.5312 104.639 46.0553 104.365 46.5566 104.092C47.1035 103.773 47.6504 103.499 48.1973 103.271C48.7897 103.044 49.4049 102.93 50.043 102.93C52.0026 102.93 53.8483 103.044 55.5801 103.271C57.3574 103.499 59.112 103.818 60.8438 104.229C62.0286 104.502 63.0996 104.867 64.0566 105.322C65.0592 105.778 66.1758 106.006 67.4062 106.006C68.2721 106.006 69.0469 105.755 69.7305 105.254C70.4596 104.753 71.166 104.206 71.8496 103.613C72.5332 102.975 73.2396 102.406 73.9688 101.904C74.7435 101.403 75.6094 101.152 76.5664 101.152C77.4323 101.152 78.002 101.562 78.2754 102.383C78.5488 103.203 78.6855 103.978 78.6855 104.707L77.3867 109.15L77.9336 117.217V118.994C77.9336 120.225 77.888 121.273 77.7969 122.139C77.7513 122.959 77.569 124.007 77.25 125.283C77.1589 125.511 76.9993 125.716 76.7715 125.898C76.5892 126.081 76.4297 126.172 76.293 126.172C76.293 126.263 76.1335 126.309 75.8145 126.309C75.5866 126.309 75.222 126.012 74.7207 125.42C74.265 124.827 73.6953 124.076 73.0117 123.164C72.3737 122.253 71.6901 121.25 70.9609 120.156C70.2318 119.062 69.5026 118.014 68.7734 117.012C68.0443 115.964 67.3379 115.029 66.6543 114.209C66.0163 113.389 65.4466 112.819 64.9453 112.5C64.0339 111.908 63.0312 111.429 61.9375 111.064C60.8438 110.654 59.7044 110.358 58.5195 110.176C57.3346 109.948 56.1497 109.788 54.9648 109.697C53.7799 109.606 52.6862 109.561 51.6836 109.561C50.1797 109.561 48.8809 109.697 47.7871 109.971C46.6934 110.244 45.7363 110.677 44.916 111.27C44.0957 111.862 43.3665 112.637 42.7285 113.594C42.0905 114.505 41.498 115.599 40.9512 116.875C40.4954 117.878 40.1081 118.675 39.7891 119.268C39.5156 119.86 39.265 120.407 39.0371 120.908C38.8548 121.41 38.7181 121.956 38.627 122.549C38.5358 123.096 38.4902 123.848 38.4902 124.805C38.4902 127.22 38.9004 129.316 39.7207 131.094C40.541 132.871 41.6348 134.421 43.002 135.742C44.3691 137.018 45.9642 138.089 47.7871 138.955C49.61 139.775 51.5469 140.482 53.5977 141.074L54.2812 141.553C55.375 142.236 56.332 142.829 57.1523 143.33C58.0182 143.786 58.8385 144.219 59.6133 144.629C60.388 144.993 61.1855 145.358 62.0059 145.723C62.8717 146.087 63.8516 146.52 64.9453 147.021L72.875 152.08C72.9661 152.126 73.0573 152.217 73.1484 152.354C73.2852 152.445 73.4219 152.536 73.5586 152.627C73.7409 152.764 73.9004 152.9 74.0371 153.037L75.2676 156.455C75.4499 156.774 75.6094 157.139 75.7461 157.549C75.9284 157.913 76.1107 158.187 76.293 158.369C76.4297 158.46 76.6576 158.688 76.9766 159.053C77.2956 159.417 77.6146 159.827 77.9336 160.283C78.2982 160.693 78.5944 161.104 78.8223 161.514C79.0957 161.878 79.2324 162.129 79.2324 162.266C79.3691 162.539 79.5286 162.949 79.7109 163.496C79.9388 163.997 80.1439 164.521 80.3262 165.068C80.554 165.615 80.7363 166.139 80.873 166.641C81.0553 167.142 81.1465 167.507 81.1465 167.734V177.783C81.1465 177.829 81.0326 178.125 80.8047 178.672C80.6224 179.219 80.4173 179.674 80.1895 180.039C80.0527 180.085 79.9388 180.199 79.8477 180.381C79.8021 180.472 79.7565 180.586 79.7109 180.723C79.6654 180.859 79.5514 181.156 79.3691 181.611C79.2324 182.067 79.0729 182.568 78.8906 183.115C78.7083 183.662 78.526 184.163 78.3438 184.619C78.1615 185.075 78.0247 185.348 77.9336 185.439C77.7969 185.85 77.5462 186.283 77.1816 186.738C76.8626 187.194 76.498 187.627 76.0879 188.037C75.6777 188.447 75.2676 188.812 74.8574 189.131C74.4928 189.45 74.2194 189.678 74.0371 189.814C73.627 190.361 73.3991 190.954 73.3535 191.592C73.3079 192.23 73.0345 192.708 72.5332 193.027C70.7559 193.665 69.2975 194.395 68.1582 195.215C67.0189 195.99 65.9251 196.742 64.877 197.471C63.8743 198.154 62.8034 198.747 61.6641 199.248C60.5247 199.749 59.0892 200 57.3574 200H56.5371C55.3066 199.909 54.4863 199.863 54.0762 199.863C53.7116 199.818 53.4382 199.795 53.2559 199.795L39.8574 199.316ZM164.887 117.422L161.537 113.936C160.398 112.933 159.327 112.113 158.324 111.475C157.367 110.837 156.41 110.335 155.453 109.971C154.496 109.561 153.516 109.287 152.514 109.15C151.557 109.014 150.486 108.945 149.301 108.945C148.891 108.945 148.64 108.991 148.549 109.082C147.318 109.082 146.339 109.082 145.609 109.082C144.926 109.082 144.402 109.082 144.037 109.082C143.673 109.082 143.422 109.105 143.285 109.15C143.194 109.15 143.148 109.15 143.148 109.15H137.885C137.11 109.378 136.312 109.515 135.492 109.561C134.672 109.606 133.874 109.629 133.1 109.629C131.368 109.629 130.046 109.652 129.135 109.697C128.269 109.743 127.562 109.925 127.016 110.244C126.514 110.426 126.218 110.677 126.127 110.996C126.036 111.27 125.99 111.52 125.99 111.748C125.99 112.705 125.854 113.411 125.58 113.867C125.352 114.277 124.851 114.733 124.076 115.234C123.939 115.326 123.826 115.553 123.734 115.918C123.689 116.283 123.62 116.693 123.529 117.148C123.484 117.604 123.438 118.06 123.393 118.516C123.393 118.971 123.393 119.336 123.393 119.609C123.393 120.658 123.552 121.66 123.871 122.617C124.19 123.574 124.35 124.645 124.35 125.83L123.734 130.137C123.734 131.185 123.962 132.233 124.418 133.281C124.919 134.329 125.17 135.469 125.17 136.699L124.076 146.885C124.076 147.295 124.258 147.773 124.623 148.32C124.988 148.822 125.284 149.209 125.512 149.482C126.924 149.665 128.36 149.938 129.818 150.303C131.277 150.622 132.712 150.781 134.125 150.781C134.444 150.781 134.717 150.758 134.945 150.713C135.219 150.622 135.469 150.326 135.697 149.824C136.199 149.779 136.791 149.733 137.475 149.688C138.204 149.642 139.024 149.619 139.936 149.619C141.166 149.619 142.488 149.619 143.9 149.619C145.313 149.574 146.703 149.505 148.07 149.414C149.438 149.277 150.691 149.095 151.83 148.867C152.969 148.594 153.858 148.206 154.496 147.705C155.134 147.295 155.613 146.702 155.932 145.928C156.296 145.153 156.57 144.333 156.752 143.467C156.934 142.555 157.094 141.644 157.23 140.732C157.367 139.821 157.549 139.001 157.777 138.271C158.051 137.497 158.415 136.882 158.871 136.426C159.372 135.924 160.079 135.674 160.99 135.674C161.264 135.674 161.514 135.719 161.742 135.811C162.016 135.902 162.266 136.198 162.494 136.699V139.57C162.494 141.758 162.266 143.854 161.811 145.859C161.583 147.454 161.355 148.913 161.127 150.234C160.945 151.51 160.854 152.809 160.854 154.131C160.854 155.27 161.013 156.387 161.332 157.48C161.697 158.529 162.061 159.577 162.426 160.625C162.836 161.628 163.201 162.653 163.52 163.701C163.884 164.749 164.066 165.82 164.066 166.914C164.066 167.598 164.044 168.122 163.998 168.486C163.998 168.805 163.907 169.01 163.725 169.102C163.497 169.466 163.337 169.74 163.246 169.922C163.155 170.104 162.904 170.195 162.494 170.195C161.811 170.195 161.286 169.945 160.922 169.443C160.603 168.942 160.193 168.441 159.691 167.939L158.734 165.82C158.233 164.727 157.755 163.678 157.299 162.676C156.843 161.673 156.296 160.739 155.658 159.873C155.066 158.962 154.359 158.118 153.539 157.344C152.764 156.523 151.807 155.794 150.668 155.156H147.592C145.997 155.156 144.356 155.133 142.67 155.088C140.984 154.997 139.525 154.837 138.295 154.609L134.125 153.857C132.94 153.857 131.641 154.062 130.229 154.473C128.861 154.883 127.562 155.111 126.332 155.156C125.922 155.658 125.443 156.296 124.896 157.07C124.35 157.799 124.076 158.597 124.076 159.463C124.805 162.835 125.421 166.162 125.922 169.443C126.423 172.679 126.674 175.938 126.674 179.219C126.674 180.768 126.628 181.816 126.537 182.363C126.492 182.865 126.423 183.275 126.332 183.594C126.697 184.688 127.198 185.667 127.836 186.533C128.52 187.354 129.294 188.105 130.16 188.789C131.026 189.427 131.938 190.02 132.895 190.566C133.852 191.113 134.786 191.615 135.697 192.07C135.743 192.07 135.88 192.207 136.107 192.48C136.381 192.754 136.518 192.936 136.518 193.027C136.7 193.118 137.11 193.21 137.748 193.301C138.386 193.346 138.796 193.369 138.979 193.369C139.343 193.369 139.639 193.369 139.867 193.369C140.141 193.369 140.437 193.324 140.756 193.232C141.12 193.187 141.417 193.164 141.645 193.164C141.918 193.164 142.214 193.164 142.533 193.164C142.852 193.164 143.194 193.164 143.559 193.164C143.923 193.164 144.242 193.187 144.516 193.232C144.835 193.324 145.131 193.369 145.404 193.369C145.723 193.369 146.02 193.369 146.293 193.369C146.521 193.597 146.794 193.825 147.113 194.053C147.478 194.281 147.797 194.554 148.07 194.873C148.389 195.192 148.64 195.534 148.822 195.898C149.05 196.263 149.164 196.673 149.164 197.129C149.164 197.63 149.05 198.154 148.822 198.701C148.594 199.202 148.275 199.681 147.865 200.137C147.501 200.638 147.09 201.025 146.635 201.299C146.179 201.618 145.723 201.777 145.268 201.777H145.131C144.63 201.868 144.06 201.914 143.422 201.914C142.829 201.96 142.305 201.982 141.85 201.982C141.212 201.982 140.596 201.96 140.004 201.914C139.457 201.914 138.728 201.868 137.816 201.777L136.518 201.436C135.743 201.025 134.877 200.661 133.92 200.342C132.963 200.023 131.96 199.749 130.912 199.521C129.91 199.294 128.884 199.134 127.836 199.043C126.833 198.906 125.899 198.838 125.033 198.838C124.076 198.838 123.256 198.883 122.572 198.975C121.889 199.02 120.977 199.202 119.838 199.521C118.79 199.704 117.696 199.84 116.557 199.932C115.463 199.977 114.392 200 113.344 200C112.159 200 111.042 199.977 109.994 199.932C108.992 199.84 107.898 199.704 106.713 199.521C106.166 199.704 105.642 200 105.141 200.41C104.685 200.82 104.07 201.117 103.295 201.299C102.976 201.208 102.68 201.117 102.406 201.025C102.178 200.98 101.905 200.957 101.586 200.957C101.358 201.048 101.016 201.094 100.561 201.094H97.9629C96.9147 200.729 96.0488 200.365 95.3652 200C94.7272 199.635 94.2487 198.929 93.9297 197.881C93.9297 196.423 94.6816 195.192 96.1855 194.189C97.2793 194.098 98.6921 193.802 100.424 193.301C102.201 192.799 103.91 192.139 105.551 191.318C107.191 190.498 108.604 189.518 109.789 188.379C111.02 187.24 111.635 185.986 111.635 184.619C111.635 182.204 111.566 180.13 111.43 178.398C111.339 176.621 111.202 174.912 111.02 173.271C110.883 171.631 110.746 169.922 110.609 168.145C110.518 166.322 110.473 164.134 110.473 161.582C110.473 160.807 110.541 160.055 110.678 159.326C110.86 158.551 111.02 157.799 111.156 157.07C111.339 156.296 111.498 155.544 111.635 154.814C111.817 154.04 111.908 153.265 111.908 152.49C111.908 152.354 111.885 152.171 111.84 151.943C111.84 151.715 111.84 151.488 111.84 151.26C111.84 150.986 111.817 150.758 111.771 150.576C111.771 150.348 111.771 150.234 111.771 150.234L110.951 147.227V141.963C110.951 141.188 110.86 140.413 110.678 139.639C110.495 138.864 110.29 138.089 110.062 137.314C109.88 136.54 109.698 135.788 109.516 135.059C109.379 134.284 109.311 133.532 109.311 132.803C109.311 132.62 109.333 132.324 109.379 131.914C109.47 131.458 109.561 131.139 109.652 130.957C109.835 130.046 109.971 129.134 110.062 128.223C110.199 127.266 110.268 126.309 110.268 125.352C110.268 124.44 110.222 123.551 110.131 122.686C110.04 121.774 109.88 120.863 109.652 119.951C109.652 119.131 109.447 118.333 109.037 117.559C108.673 116.738 108.171 115.964 107.533 115.234C106.941 114.505 106.28 113.867 105.551 113.32C104.822 112.728 104.138 112.295 103.5 112.021C102.68 111.702 101.563 111.497 100.15 111.406C98.7376 111.315 97.3249 111.156 95.9121 110.928C94.4993 110.654 93.2689 110.221 92.2207 109.629C91.2181 108.991 90.7168 107.965 90.7168 106.553V105.527C91.446 105.117 92.3346 104.707 93.3828 104.297C94.4766 103.841 95.4108 103.613 96.1855 103.613H97.8262C98.4642 103.613 99.0794 103.682 99.6719 103.818C100.31 103.955 100.834 104.274 101.244 104.775C102.019 104.912 102.794 105.026 103.568 105.117C104.343 105.208 105.118 105.254 105.893 105.254C106.576 105.254 107.328 105.208 108.148 105.117C108.969 105.026 109.789 104.912 110.609 104.775C110.837 104.411 110.997 104.206 111.088 104.16C111.225 104.115 111.452 104.092 111.771 104.092C112.729 104.092 113.663 104.274 114.574 104.639C115.486 105.003 116.534 105.186 117.719 105.186H119.223C119.724 105.186 120.248 105.186 120.795 105.186C121.342 105.14 121.934 105.003 122.572 104.775C124.213 105.049 126.013 105.186 127.973 105.186C129.796 105.186 131.641 105.049 133.51 104.775C135.196 104.183 136.973 103.887 138.842 103.887C140.756 103.887 142.738 103.796 144.789 103.613C145.837 103.522 146.817 103.454 147.729 103.408C148.686 103.317 149.643 103.271 150.6 103.271C151.283 103.271 151.99 103.317 152.719 103.408C153.448 103.454 154.2 103.522 154.975 103.613C155.157 103.704 155.385 103.864 155.658 104.092C155.977 104.274 156.273 104.479 156.547 104.707C156.866 104.935 157.162 105.14 157.436 105.322C157.709 105.459 157.914 105.527 158.051 105.527C158.461 105.527 158.803 105.459 159.076 105.322C159.395 105.186 159.783 105.003 160.238 104.775C160.967 104.593 161.719 104.479 162.494 104.434C163.269 104.342 164.066 104.297 164.887 104.297C166.299 104.297 167.712 104.456 169.125 104.775C169.216 104.775 169.421 104.935 169.74 105.254C170.105 105.527 170.469 105.846 170.834 106.211C171.244 106.53 171.609 106.849 171.928 107.168C172.247 107.441 172.429 107.601 172.475 107.646V117.422C173.386 119.655 173.842 121.911 173.842 124.189C173.842 124.736 173.819 125.306 173.773 125.898C173.773 126.445 173.682 126.969 173.5 127.471C173.363 127.972 173.113 128.382 172.748 128.701C172.383 129.02 171.882 129.18 171.244 129.18C170.971 128.861 170.652 128.473 170.287 128.018C169.923 127.562 169.535 127.106 169.125 126.65C168.76 126.149 168.396 125.671 168.031 125.215C167.712 124.759 167.439 124.349 167.211 123.984C167.211 123.893 167.12 123.643 166.938 123.232C166.755 122.777 166.55 122.321 166.322 121.865C166.094 121.364 165.867 120.908 165.639 120.498C165.456 120.042 165.32 119.746 165.229 119.609C165.137 119.518 165.046 119.154 164.955 118.516C164.91 117.878 164.887 117.513 164.887 117.422ZM183.891 195.83C183.891 195.146 184.21 194.645 184.848 194.326C185.486 194.007 186.283 193.757 187.24 193.574C188.243 193.346 189.314 193.118 190.453 192.891C191.592 192.663 192.641 192.298 193.598 191.797C194.6 191.296 195.421 190.589 196.059 189.678C196.697 188.766 197.016 187.513 197.016 185.918L196.537 183.662C196.537 183.343 196.628 183.092 196.811 182.91C196.993 182.682 197.198 182.477 197.426 182.295C197.654 182.113 197.859 181.908 198.041 181.68C198.223 181.452 198.314 181.133 198.314 180.723L197.768 176.006L198.109 173.271C198.201 173.044 198.246 172.565 198.246 171.836C198.246 170.378 198.018 169.124 197.562 168.076C197.152 166.982 196.947 165.911 196.947 164.863C196.947 164.225 196.97 163.838 197.016 163.701C197.562 161.969 197.995 160.192 198.314 158.369C198.633 156.501 198.793 154.723 198.793 153.037C198.793 152.308 198.633 151.807 198.314 151.533L197.768 139.092C197.585 138.317 197.335 137.474 197.016 136.562C196.697 135.651 196.537 134.717 196.537 133.76C196.537 133.669 196.56 133.555 196.605 133.418C196.651 133.281 196.788 132.894 197.016 132.256C197.016 130.068 196.924 127.926 196.742 125.83C196.56 123.688 196.378 121.478 196.195 119.199L196.332 117.08C196.332 117.035 196.218 116.898 195.99 116.67C195.762 116.442 195.489 116.191 195.17 115.918C194.896 115.645 194.646 115.371 194.418 115.098C194.19 114.824 194.076 114.619 194.076 114.482C194.167 114.255 194.236 114.049 194.281 113.867C194.327 113.685 194.35 113.503 194.35 113.32C194.35 113.092 194.327 112.865 194.281 112.637C194.236 112.363 194.167 112.113 194.076 111.885C194.031 111.657 193.712 111.406 193.119 111.133C192.572 110.814 191.889 110.518 191.068 110.244C190.248 109.971 189.359 109.697 188.402 109.424C187.491 109.105 186.625 108.831 185.805 108.604C185.03 108.33 184.369 108.079 183.822 107.852C183.321 107.578 183.07 107.35 183.07 107.168C183.07 106.53 183.253 106.006 183.617 105.596C183.982 105.14 184.438 104.798 184.984 104.57C185.531 104.297 186.124 104.115 186.762 104.023C187.445 103.932 188.106 103.887 188.744 103.887C189.792 104.297 190.863 104.548 191.957 104.639C193.096 104.684 194.19 104.707 195.238 104.707C198.018 104.707 200.548 104.57 202.826 104.297C204.604 104.115 206.472 103.91 208.432 103.682C210.391 103.454 212.191 103.203 213.832 102.93C214.789 102.611 215.518 102.383 216.02 102.246C216.521 102.064 216.817 101.973 216.908 101.973C217.455 101.973 217.865 101.995 218.139 102.041C218.458 102.087 218.708 102.132 218.891 102.178H225.863C226.091 102.269 226.365 102.314 226.684 102.314C227.048 102.314 227.367 102.314 227.641 102.314C227.96 102.314 228.256 102.314 228.529 102.314C228.848 102.314 229.145 102.269 229.418 102.178C232.107 102.178 234.682 102.52 237.143 103.203C239.604 103.887 242.133 104.616 244.73 105.391C244.822 105.391 245.141 105.459 245.688 105.596C246.28 105.687 246.895 105.801 247.533 105.938C248.217 106.074 248.855 106.211 249.447 106.348C250.085 106.439 250.473 106.484 250.609 106.484C250.701 106.484 250.86 106.598 251.088 106.826C251.361 107.008 251.658 107.214 251.977 107.441C252.296 107.624 252.569 107.806 252.797 107.988C253.07 108.171 253.253 108.262 253.344 108.262L256.557 108.672C256.557 108.672 256.625 108.74 256.762 108.877C256.944 109.014 257.126 109.173 257.309 109.355C257.491 109.538 257.673 109.697 257.855 109.834C258.038 109.971 258.174 110.062 258.266 110.107C259.542 111.064 260.909 111.816 262.367 112.363C263.871 112.865 265.352 113.571 266.811 114.482C268.269 116.214 269.887 117.946 271.664 119.678C273.441 121.41 275.128 123.187 276.723 125.01C276.768 125.055 276.814 125.146 276.859 125.283C276.951 125.42 277.042 125.671 277.133 126.035C277.224 126.354 277.361 126.81 277.543 127.402C277.725 127.995 277.93 128.77 278.158 129.727C278.158 130.273 278.249 130.638 278.432 130.82C278.432 130.957 278.546 131.162 278.773 131.436C279.001 131.709 279.252 132.005 279.525 132.324C279.844 132.643 280.141 132.939 280.414 133.213C280.688 133.486 280.893 133.669 281.029 133.76C281.029 134.671 281.12 135.492 281.303 136.221C281.485 136.904 281.69 137.565 281.918 138.203C282.146 138.841 282.351 139.456 282.533 140.049C282.715 140.641 282.807 141.234 282.807 141.826L282.533 145.723L283.354 151.055C283.354 152.422 283.24 153.743 283.012 155.02C282.784 156.296 282.51 157.549 282.191 158.779C281.872 160.01 281.531 161.263 281.166 162.539C280.801 163.77 280.482 165.068 280.209 166.436V169.033C280.209 169.079 280.049 169.307 279.73 169.717C279.457 170.081 279.32 170.355 279.32 170.537C278.91 171.54 278.432 172.52 277.885 173.477C277.383 174.434 276.859 175.413 276.312 176.416C275.766 177.373 275.219 178.353 274.672 179.355C274.171 180.358 273.715 181.406 273.305 182.5L267.494 187.559L263.598 189.814C263.279 189.814 263.119 189.928 263.119 190.156C262.117 191.523 260.863 192.754 259.359 193.848C257.901 194.941 256.283 195.488 254.506 195.488L250.951 195.146C250.541 195.146 250.04 195.306 249.447 195.625C248.9 195.898 248.376 196.126 247.875 196.309C247.738 196.309 247.465 196.354 247.055 196.445C246.645 196.491 246.212 196.559 245.756 196.65C245.346 196.696 244.936 196.764 244.525 196.855C244.161 196.901 243.933 196.924 243.842 196.924C243.705 196.924 243.34 196.992 242.748 197.129C242.156 197.266 241.472 197.425 240.697 197.607C239.923 197.744 239.148 197.904 238.373 198.086C237.598 198.268 236.983 198.405 236.527 198.496C235.98 198.952 235.274 199.18 234.408 199.18C234.089 199.18 233.679 199.134 233.178 199.043C232.676 198.906 231.947 198.724 230.99 198.496C230.945 198.496 230.785 198.542 230.512 198.633C230.284 198.678 230.01 198.747 229.691 198.838C229.418 198.929 229.122 199.02 228.803 199.111C228.484 199.157 228.233 199.18 228.051 199.18C227.732 199.089 227.322 198.952 226.82 198.77C226.319 198.587 225.977 198.496 225.795 198.496C223.744 198.77 221.739 198.952 219.779 199.043C217.865 199.134 215.951 199.18 214.037 199.18C212.032 199.18 210.095 199.134 208.227 199.043C206.358 198.952 204.444 198.77 202.484 198.496C201.299 198.268 200.297 198.132 199.477 198.086C198.656 198.04 197.654 198.018 196.469 198.018L188.676 199.521C188.129 199.521 187.559 199.453 186.967 199.316C186.42 199.18 185.919 198.975 185.463 198.701C185.007 198.382 184.62 197.995 184.301 197.539C184.027 197.083 183.891 196.514 183.891 195.83ZM211.576 178.125C211.576 180.267 212.26 182.318 213.627 184.277C214.994 186.237 216.68 187.946 218.686 189.404C220.736 190.863 222.924 192.025 225.248 192.891C227.572 193.757 229.669 194.189 231.537 194.189C233.998 194.189 236.208 193.916 238.168 193.369C240.173 192.822 242.201 191.956 244.252 190.771C244.844 190.407 245.368 190.133 245.824 189.951C246.326 189.723 246.804 189.518 247.26 189.336C247.715 189.108 248.171 188.857 248.627 188.584C249.128 188.311 249.675 187.969 250.268 187.559C251.908 186.374 253.503 185.098 255.053 183.73C256.648 182.363 258.129 180.814 259.496 179.082L259.838 177.305C260.02 176.53 260.248 175.869 260.521 175.322C260.795 174.73 261.091 174.16 261.41 173.613C261.729 173.066 262.025 172.52 262.299 171.973C262.618 171.38 262.891 170.719 263.119 169.99C263.119 169.945 263.142 169.785 263.188 169.512C263.233 169.238 263.279 168.942 263.324 168.623C263.37 168.304 263.415 168.008 263.461 167.734C263.552 167.461 263.598 167.301 263.598 167.256C263.917 166.436 264.281 165.615 264.691 164.795C265.102 163.929 265.489 163.063 265.854 162.197C266.218 161.331 266.514 160.443 266.742 159.531C267.016 158.62 267.152 157.686 267.152 156.729C266.924 156.09 266.788 155.658 266.742 155.43C266.697 155.156 266.674 154.906 266.674 154.678C266.674 154.45 266.697 154.176 266.742 153.857C266.788 153.538 266.811 153.356 266.811 153.311C266.719 152.946 266.605 152.262 266.469 151.26C266.332 150.257 266.195 149.209 266.059 148.115C265.967 146.976 265.876 145.905 265.785 144.902C265.694 143.854 265.648 143.148 265.648 142.783C265.238 142.236 264.965 141.598 264.828 140.869C264.737 140.094 264.691 139.388 264.691 138.75C264.691 138.158 264.714 137.656 264.76 137.246C264.805 136.79 264.828 136.38 264.828 136.016C264.053 135.469 263.507 134.808 263.188 134.033C262.868 133.213 262.618 132.37 262.436 131.504C262.253 130.638 262.048 129.772 261.82 128.906C261.638 127.995 261.296 127.174 260.795 126.445C260.749 126.354 260.635 126.217 260.453 126.035C260.271 125.807 260.066 125.579 259.838 125.352C259.61 125.078 259.405 124.85 259.223 124.668C259.04 124.486 258.926 124.372 258.881 124.326L257.719 122.754L253.891 118.857C252.842 117.855 251.863 116.784 250.951 115.645C250.085 114.505 249.06 113.525 247.875 112.705C247.009 112.113 246.166 111.702 245.346 111.475C244.571 111.201 243.773 110.951 242.953 110.723C242.133 110.495 241.29 110.176 240.424 109.766C239.558 109.355 238.646 108.717 237.689 107.852C237.143 107.396 236.254 107.031 235.023 106.758C233.839 106.484 232.562 106.279 231.195 106.143C229.828 105.96 228.507 105.846 227.23 105.801C226 105.755 225.089 105.732 224.496 105.732C222.4 105.732 220.121 105.892 217.66 106.211C215.245 106.484 213.057 107.031 211.098 107.852C210.733 108.034 210.414 108.467 210.141 109.15C209.913 109.834 209.708 110.632 209.525 111.543C209.389 112.454 209.275 113.411 209.184 114.414C209.138 115.417 209.115 116.305 209.115 117.08V119.131C209.115 120.771 209.32 122.344 209.73 123.848C210.186 125.306 210.414 126.924 210.414 128.701C210.414 128.929 210.346 129.248 210.209 129.658C210.118 130.023 210.027 130.251 209.936 130.342C209.799 131.299 209.708 132.256 209.662 133.213C209.617 134.17 209.594 135.104 209.594 136.016C209.594 136.79 209.617 137.588 209.662 138.408C209.708 139.183 209.799 139.935 209.936 140.664C210.255 141.576 210.437 142.35 210.482 142.988C210.574 143.581 210.619 144.173 210.619 144.766C210.619 145.358 210.596 145.905 210.551 146.406C210.551 146.908 210.505 147.546 210.414 148.32L210.551 149.961L210.414 151.191C210.186 151.602 210.049 151.966 210.004 152.285C209.958 152.559 209.936 152.923 209.936 153.379V154.473C209.936 156.523 210.004 158.643 210.141 160.83C210.323 163.018 210.528 165.16 210.756 167.256C210.938 168.486 211.212 169.717 211.576 170.947C211.986 172.178 212.191 173.385 212.191 174.57L211.576 178.125Z" fill="url(#paint1_linear)"/>
<defs>
<linearGradient id="paint0_linear" x1="247" y1="39" x2="60" y2="269" gradientUnits="userSpaceOnUse">
<stop stop-color="#005459"/>
<stop offset="1" stop-color="#FF7F37"/>
</linearGradient>
<linearGradient id="paint1_linear" x1="277.474" y1="99.4793" x2="-0.741552" y2="239.402" gradientUnits="userSpaceOnUse">
<stop offset="0.446002" stop-color="#00594F"/>
<stop offset="1" stop-color="#FF5C00"/>
</linearGradient>
</defs>
</svg>
